<?xml version="1.0" standalone="no"?>
<!DOCTYPE svg PUBLIC "-//W3C//DTD SVG 20010904//EN"
 "http://www.w3.org/TR/2001/REC-SVG-20010904/DTD/svg10.dtd">
<svg version="1.0" xmlns="http://www.w3.org/2000/svg"
 width="16.000000pt" height="16.000000pt" viewBox="0 0 16.000000 16.000000"
 preserveAspectRatio="xMidYMid meet">
<metadata>
Created by potrace 1.11, written by Peter Selinger 2001-2013
</metadata>
<g transform="translate(0.000000,16.000000) scale(0.002759,-0.002759)"
fill="#000000" stroke="none">
<path d="M340 5673 c-48 -18 -107 -114 -130 -213 -7 -30 -16 -68 -20 -85 -11
-48 -4 -266 9 -315 37 -129 231 -429 412 -635 58 -66 116 -134 150 -176 20
-24 64 -77 98 -118 72 -86 95 -126 86 -149 -3 -9 -34 -63 -68 -119 -167 -277
-288 -535 -380 -813 -83 -247 -110 -402 -110 -630 1 -270 17 -324 219 -735 56
-116 118 -249 137 -296 88 -219 94 -365 16 -445 -82 -85 -185 -117 -453 -139
-78 -6 -102 -16 -112 -47 -11 -33 -5 -60 19 -86 l22 -23 395 4 c239 3 421 10
460 17 129 23 249 76 316 138 98 89 137 246 105 412 -24 123 -160 354 -321
544 -83 98 -145 180 -199 268 -70 111 -97 172 -112 252 -9 48 -12 348 -5 446
10 120 22 234 31 275 2 11 7 43 10 70 18 130 99 438 154 581 48 123 70 145
109 106 18 -18 214 -240 298 -338 51 -59 263 -302 313 -359 14 -16 43 -50 65
-75 21 -25 62 -72 91 -105 28 -33 132 -152 229 -265 200 -231 263 -303 321
-369 23 -25 65 -75 95 -111 30 -36 60 -69 66 -75 6 -5 37 -41 70 -80 32 -38
66 -76 74 -85 8 -9 38 -43 65 -75 28 -32 55 -63 60 -69 6 -6 37 -43 70 -81 33
-39 74 -86 91 -105 122 -136 245 -287 277 -341 21 -35 42 -71 48 -79 54 -86
119 -275 134 -390 10 -78 25 -98 71 -94 67 5 112 59 153 182 27 81 33 121 35
252 3 131 -8 185 -60 296 -48 104 -216 346 -311 449 -10 11 -63 74 -118 140
-55 66 -102 122 -105 125 -23 21 -160 190 -169 207 -11 21 -9 230 3 283 3 14
8 42 11 63 10 69 16 112 25 167 5 30 12 75 15 100 3 25 8 52 10 60 2 8 7 33
10 55 3 23 7 50 9 60 2 11 7 45 11 75 4 30 9 64 11 75 2 11 13 76 24 145 11
69 22 134 24 145 2 11 9 56 15 100 7 44 16 103 21 130 5 28 12 70 15 95 3 25
8 52 10 60 4 16 10 53 21 135 7 58 29 115 43 115 22 0 101 -105 143 -192 50
-101 61 -132 78 -223 15 -80 27 -108 51 -123 26 -17 56 -7 97 32 50 46 84 124
107 241 13 66 12 261 -1 325 -32 153 -90 237 -314 460 -186 184 -231 244 -412
545 -145 242 -171 289 -194 350 -23 62 -35 75 -77 82 -28 4 -40 0 -68 -25 -78
-68 -119 -194 -124 -378 -3 -155 7 -213 60 -319 59 -119 114 -191 278 -366
125 -132 130 -139 135 -189 3 -37 -47 -413 -63 -470 -2 -8 -7 -37 -10 -65 -8
-60 -8 -59 -39 -255 -14 -85 -28 -173 -31 -195 -3 -22 -10 -65 -15 -95 -16
-93 -18 -107 -60 -384 -44 -285 -51 -316 -74 -316 -8 0 -70 64 -137 143 -67
78 -139 160 -158 182 -20 22 -61 69 -91 104 -70 81 -81 93 -144 166 -63 72
-247 284 -360 414 -44 52 -88 102 -96 111 -8 9 -40 45 -70 80 -30 36 -57 67
-60 70 -3 3 -35 39 -70 80 -36 41 -69 79 -75 86 -9 9 -83 94 -128 148 -36 41
-123 142 -232 267 -439 503 -465 533 -537 643 -97 147 -146 264 -173 411 -21
117 -23 126 -36 141 -11 14 -50 17 -79 7z"/>
<path d="M4623 1945 c-184 -40 -351 -207 -417 -415 -43 -136 -51 -208 -50
-460 0 -180 4 -231 22 -311 36 -167 90 -275 189 -378 96 -100 218 -153 360
-156 166 -5 284 42 398 159 112 114 174 252 201 446 2 19 7 50 10 68 3 18 5
101 5 185 0 138 -4 203 -17 277 -2 14 -7 41 -10 60 -3 19 -14 64 -25 100 -66
210 -220 371 -400 420 -65 18 -195 20 -266 5z m272 -78 c105 -49 162 -135 194
-293 38 -185 47 -684 17 -864 -3 -14 -7 -43 -10 -65 -9 -66 -43 -174 -70 -220
-55 -93 -139 -138 -267 -141 -106 -2 -168 19 -236 81 -89 79 -126 195 -149
470 -5 57 -4 471 1 525 8 85 16 155 20 170 2 8 6 31 9 52 8 50 34 127 57 165
24 38 87 96 128 118 82 42 215 43 306 2z"/>
</g>
</svg>
